# xmcd
#
# Track frame offsets: 
#        150
#        19750
#        33998
#        56167
#        72292
#        91079
#        109525
#        123479
#        144865
#        163650
#        181330
#        206693
#        224128
#        241226
#        260882
#        288961
#
# Disc length: 3867 seconds
#
# Revision: 0
# Processed by: cddbd v1.4PL0 Copyright (c) Steve Scherf et al.
# Submitted via: ExactAudioCopy v0.95a3
#
DISCID=ed0f1910
DTITLE=Various Artist - PES9107
DYEAR=2002
DGENRE=Country
TTITLE0=Twain, Shania - I'm Gonna Getcha Good
TTITLE1=Twain, Shania - Up!
TTITLE2=Twain, Shania - Forever and For Always
TTITLE3=Twain, Shania - It Only Hurts When I'm Breathing
TTITLE4=Twain, Shania - When You Kiss Me
TTITLE5=Evans, Sara - I Keep Looking
TTITLE6=Trick Pony - Pour Me
TTITLE7=McBride, Martina - Where Would You Be
TTITLE8=Coffey, Kellie - When You Lie Next To Me
TTITLE9=Hill, Faith - Cry
TTITLE10=Dixie Chicks, The - Travelin' Soldier
TTITLE11=Dixie Chicks, The - Landslide
TTITLE12=Dixie Chicks, The - Long Time Gone
TTITLE13=Dixie Chicks, The - Goodbye Earl
TTITLE14=Dixie Chicks, The - Tortured, Tangled Hearts
TTITLE15=DATA
EXTD=
EXTT0=
EXTT1=
EXTT2=
EXTT3=
EXTT4=
EXTT5=
EXTT6=
EXTT7=
EXTT8=
EXTT9=
EXTT10=
EXTT11=
EXTT12=
EXTT13=
EXTT14=
EXTT15=
PLAYORDER=
